Coordinates
version=1
nRows=19
nColumns=63
inDegrees=yes

Units are S.I. units (second, meters, Newtons, ...)
If the header above contains a line with 'inDegrees', this indicates whether rotational values are in degrees (yes) or radians (no).

endheader
time	pelvis_tilt	pelvis_list	pelvis_rotation	pelvis_tx	pelvis_ty	pelvis_tz	hip_flexion_r	hip_adduction_r	hip_rotation_r	knee_angle_r	knee_angle_r_beta	ankle_angle_r	subtalar_angle_r	mtp_angle_r	hip_flexion_l	hip_adduction_l	hip_rotation_l	knee_angle_l	knee_angle_l_beta	ankle_angle_l	subtalar_angle_l	mtp_angle_l	L5_S1_Flex_Ext	L5_S1_Lat_Bending	L5_S1_axial_rotation	L4_L5_Flex_Ext	L4_L5_Lat_Bending	L4_L5_axial_rotation	L3_L4_Flex_Ext	L3_L4_Lat_Bending	L3_L4_axial_rotation	L2_L3_Flex_Ext	L2_L3_Lat_Bending	L2_L3_axial_rotation	L1_L2_Flex_Ext	L1_L2_Lat_Bending	L1_L2_axial_rotation	L1_T12_Flex_Ext	L1_T12_Lat_Bending	L1_T12_axial_rotation	Abs_r3	Abs_r2	Abs_r1	Abs_t1	Abs_t2	neck_flexion	neck_bending	neck_rotation	arm_flex_r	arm_add_r	arm_rot_r	elbow_flex_r	pro_sup_r	wrist_flex_r	wrist_dev_r	arm_flex_l	arm_add_l	arm_rot_l	elbow_flex_l	pro_sup_l	wrist_flex_l	wrist_dev_l
1.300000	0.066841	-7.511762	97.044510	0.268163	0.879074	0.730048	10.600354	1.067762	-8.956721	19.683852	0.343548	38.721969	2.444437	0.000000	1.432004	-1.657770	15.422301	2.062444	0.035996	29.706856	-11.961615	0.000000	-0.102259	0.482871	-0.785897	-0.189906	0.642219	-0.835015	-0.168002	1.174053	-0.835015	-0.116872	1.174053	-0.687660	-0.094958	0.984671	-0.638541	-0.058431	0.747967	-0.589423	-0.730427	5.462334	-4.370922	0.000000	0.000000	24.368417	-1.034746	-3.456776	-13.401280	-16.903999	2.764000	109.048813	84.527965	-6.567830	7.889278	-4.217461	-15.827550	28.001142	80.270006	88.289568	-2.509924	3.165686
1.316667	0.095878	-7.833412	96.892843	0.267795	0.879328	0.730964	11.014569	1.040118	-8.791497	19.706675	0.343946	38.462056	2.228803	0.000000	2.073754	-1.627968	13.791313	2.514974	0.043895	30.170145	-10.003491	0.000000	-0.098601	0.502186	-0.868811	-0.183111	0.667908	-0.923111	-0.161991	1.221016	-0.923111	-0.112691	1.221016	-0.760209	-0.091561	1.024058	-0.705909	-0.056340	0.777887	-0.651608	-0.704294	5.680832	-4.832064	0.000000	0.000000	24.340992	-0.896500	-2.664251	-13.194946	-17.259813	0.591253	111.481690	82.792991	-7.397248	6.542224	-5.057315	-15.887408	26.401175	80.053418	88.200717	-3.906210	4.562597
1.333333	0.106169	-8.109108	96.716113	0.267376	0.879558	0.731697	11.361575	1.015059	-8.531314	19.693050	0.343709	38.247560	1.925371	0.000000	2.714339	-1.598272	11.874643	3.079294	0.053744	30.822227	-7.686608	0.000000	-0.097285	0.521113	-0.926393	-0.180668	0.693081	-0.984292	-0.159830	1.267035	-0.984292	-0.111187	1.267035	-0.810594	-0.090339	1.062654	-0.752694	-0.055589	0.807204	-0.694794	-0.694898	5.894938	-5.152318	0.000000	0.000000	24.136991	-0.762126	-1.930489	-13.165520	-17.516715	-1.810672	113.837074	80.785177	-7.673580	5.347439	-5.943042	-15.963518	24.995500	79.697125	88.087469	-5.260215	6.108927
1.350000	0.118674	-8.322248	96.570133	0.266814	0.879763	0.732190	11.611489	1.009395	-8.214019	19.623233	0.342490	38.079463	1.551785	0.000000	3.338427	-1.590556	9.756336	3.749603	0.065443	31.652156	-5.074762	0.000000	-0.098723	0.542855	-0.962535	-0.183339	0.721997	-1.022694	-0.162192	1.319898	-1.022694	-0.112831	1.319898	-0.842218	-0.091674	1.106990	-0.782060	-0.056410	0.840882	-0.721901	-0.705169	6.140884	-5.353332	0.000000	0.000000	23.751008	-0.681039	-1.259722	-13.342594	-17.632542	-4.580934	116.126070	78.420715	-7.222873	4.701000	-6.828505	-16.048246	23.818939	79.191786	87.972496	-6.493306	7.713405
1.366667	0.116646	-8.459044	96.450469	0.266128	0.879938	0.732400	11.749960	1.010507	-7.807212	19.497223	0.340291	37.989118	1.117528	0.000000	3.921126	-1.585599	7.494927	4.511478	0.078740	32.635995	-2.264528	0.000000	-0.104553	0.564544	-0.972686	-0.194166	0.750844	-1.033479	-0.171770	1.372633	-1.033479	-0.119494	1.372633	-0.851100	-0.097088	1.151218	-0.790307	-0.059742	0.874479	-0.729515	-0.746813	6.386236	-5.409788	0.000000	0.000000	23.182350	-0.656203	-0.710896	-13.704832	-17.599817	-7.748926	118.324273	75.567302	-6.043080	4.735907	-7.669451	-16.171609	22.897112	78.579505	87.835925	-7.532890	9.415175
1.383333	0.121415	-8.525687	96.432548	0.265223	0.880097	0.732340	11.775110	1.023904	-7.410316	19.290080	0.336675	37.978264	0.696033	0.000000	4.473887	-1.600191	5.233501	5.347119	0.093325	33.753247	0.675879	0.000000	-0.112497	0.588283	-0.960635	-0.208918	0.782416	-1.020675	-0.184821	1.430350	-1.020675	-0.128573	1.430350	-0.840556	-0.104465	1.199626	-0.780516	-0.064281	0.911250	-0.720476	-0.803555	6.654771	-5.342765	0.000000	0.000000	22.412271	-0.719242	-0.347234	-14.264068	-17.430101	-11.292594	120.464060	72.440524	-4.648385	5.418992	-8.395551	-16.328763	22.286863	77.839777	87.730261	-8.250333	11.189770
1.400000	0.114318	-8.509734	96.524657	0.264125	0.880278	0.732061	11.680539	1.026667	-7.046800	19.010404	0.331794	38.064217	0.327810	0.000000	4.974672	-1.608536	3.058285	6.231649	0.108763	34.948933	3.639279	0.000000	-0.125470	0.610571	-0.922425	-0.233011	0.812059	-0.980077	-0.206135	1.484541	-0.980077	-0.143400	1.484541	-0.807122	-0.116512	1.245076	-0.749471	-0.071694	0.945774	-0.691819	-0.896220	6.906897	-5.130254	0.000000	0.000000	21.432310	-0.871567	-0.278944	-14.959153	-17.131259	-15.137178	122.519106	69.414259	-3.369707	6.566779	-8.919875	-16.566100	22.089556	76.992061	87.675486	-8.620361	13.024526
1.416667	0.092320	-8.431295	96.751686	0.262821	0.880485	0.731620	11.491515	1.007687	-6.743772	18.662985	0.325731	38.238668	0.003779	0.000000	5.436140	-1.596709	1.071801	7.136300	0.124552	36.165164	6.533454	0.000000	-0.140939	0.629638	-0.858104	-0.261737	0.837418	-0.911735	-0.231548	1.530901	-0.911735	-0.161079	1.530901	-0.750841	-0.130876	1.283957	-0.697209	-0.080532	0.975309	-0.643578	-1.006710	7.122589	-4.772515	0.000000	0.000000	20.234177	-1.096350	-0.572618	-15.723180	-16.719755	-19.211848	124.449454	66.902541	-2.439558	7.977841	-9.175557	-16.917160	22.418008	76.024265	87.682767	-8.732750	14.757693
1.433333	0.043025	-8.280762	97.139450	0.261307	0.880756	0.731048	11.192806	0.951434	-6.520662	18.247199	0.318474	38.488328	-0.283725	0.000000	5.832259	-1.544520	-0.629259	8.026186	0.140083	37.327955	9.243863	0.000000	-0.161465	0.642824	-0.779364	-0.299857	0.854956	-0.828075	-0.265271	1.562963	-0.828075	-0.184538	1.562963	-0.681944	-0.149936	1.310847	-0.633234	-0.092261	0.995735	-0.584523	-1.153329	7.271756	-4.334591	0.000000	0.000000	18.829730	-1.387162	-1.239885	-16.434693	-16.216986	-23.436889	126.165894	65.097216	-1.771982	9.524534	-9.177389	-17.389255	23.229750	74.933003	87.743436	-8.676163	16.201551
1.450000	-0.025857	-8.109351	97.653088	0.259636	0.881038	0.730421	10.852948	0.862849	-6.319175	17.786722	0.310437	38.783777	-0.576058	0.000000	6.203289	-1.451168	-2.012746	8.873121	0.154865	38.415833	11.711808	0.000000	-0.181206	0.648837	-0.674505	-0.336517	0.862953	-0.716661	-0.297703	1.577581	-0.716661	-0.207100	1.577581	-0.590192	-0.168268	1.323108	-0.548035	-0.103541	1.005048	-0.505879	-1.294333	7.339769	-3.751394	0.000000	0.000000	17.279923	-1.747082	-2.389670	-17.055102	-15.648200	-27.736299	127.608059	64.237377	-1.707117	10.971812	-8.912018	-17.972628	24.562450	73.681863	87.865281	-8.808718	17.050927
1.466667	-0.123271	-7.913516	98.353971	0.257744	0.881345	0.729785	10.453922	0.711294	-6.291960	17.286751	0.301711	39.133311	-0.746993	0.000000	6.530157	-1.292218	-2.926679	9.646814	0.168369	39.363627	13.809426	0.000000	-0.201399	0.646388	-0.574022	-0.374017	0.859695	-0.609899	-0.330878	1.571627	-0.609899	-0.230178	1.571627	-0.502270	-0.187019	1.318114	-0.466393	-0.115079	1.001254	-0.430517	-1.438570	7.312065	-3.192540	0.000000	0.000000	15.669941	-2.132988	-3.850310	-17.498197	-15.022910	-31.992177	128.679761	64.073169	-2.024414	12.245937	-8.508332	-18.580204	26.060182	72.289722	88.027652	-8.963596	17.228741
1.483333	-0.222618	-7.700826	99.183798	0.255681	0.881654	0.729183	10.025010	0.540539	-6.318011	16.775460	0.292787	39.490824	-0.892809	0.000000	6.811988	-1.099285	-3.417387	10.335648	0.180391	40.164298	15.482144	0.000000	-0.221513	0.639251	-0.467855	-0.411372	0.850204	-0.497096	-0.363924	1.554274	-0.497096	-0.253167	1.554274	-0.409373	-0.205697	1.303560	-0.380132	-0.126573	0.990199	-0.350892	-1.582245	7.231333	-2.602071	0.000000	0.000000	14.066052	-2.598544	-5.662389	-17.739540	-14.375744	-36.240835	129.390165	64.770811	-2.539390	13.492894	-7.965094	-19.186710	27.721147	70.811930	88.198550	-9.501882	16.782939
1.500000	-0.325036	-7.491999	100.170849	0.253438	0.881922	0.728680	9.586655	0.331292	-6.507217	16.270617	0.283976	39.876811	-0.887349	0.000000	7.055752	-0.859936	-3.419002	10.917805	0.190552	40.789963	16.677654	0.000000	-0.238882	0.627031	-0.383194	-0.443627	0.833951	-0.407144	-0.392459	1.524562	-0.407144	-0.273018	1.524562	-0.335295	-0.221826	1.278641	-0.311345	-0.136497	0.971270	-0.287396	-1.706308	7.093095	-2.131212	0.000000	0.000000	12.585253	-3.091559	-7.614936	-17.693361	-13.715936	-40.281699	129.679342	65.796213	-3.074093	14.655763	-7.434852	-19.693829	29.129411	69.357958	88.381072	-10.139799	15.908838
1.516667	-0.425532	-7.284384	101.263560	0.251095	0.882148	0.728343	9.154978	0.101962	-6.785555	15.793150	0.275642	40.278531	-0.749282	0.000000	7.245431	-0.588797	-2.977794	11.374660	0.198525	41.235817	17.378568	0.000000	-0.255283	0.610783	-0.320522	-0.474086	0.812342	-0.340555	-0.419404	1.485059	-0.340555	-0.291763	1.485059	-0.280457	-0.237056	1.245510	-0.260424	-0.145869	0.946104	-0.240392	-1.823461	6.909304	-1.782647	0.000000	0.000000	11.310628	-3.616265	-9.657292	-17.259613	-13.067657	-43.954234	129.534573	66.821959	-3.536474	15.715972	-6.981431	-20.050998	30.126649	68.007053	88.570339	-10.895681	14.780914
1.533333	-0.502744	-7.098036	102.456027	0.248674	0.882305	0.728250	8.767563	-0.127777	-7.178134	15.360544	0.268092	40.693710	-0.445554	0.000000	7.402947	-0.306189	-2.059992	11.701670	0.204233	41.498868	17.527828	0.000000	-0.266705	0.593703	-0.291262	-0.495297	0.789626	-0.309465	-0.438169	1.443531	-0.309465	-0.304817	1.443531	-0.254854	-0.247662	1.210680	-0.236650	-0.152395	0.919647	-0.218446	-1.905044	6.716092	-1.619910	0.000000	0.000000	10.284088	-4.141460	-11.648758	-16.334031	-12.439277	-47.016079	128.932918	67.800704	-4.051978	16.524632	-6.696411	-20.209487	30.562203	66.807279	88.753368	-11.660639	13.519709
1.550000	-0.572179	-6.913403	103.727398	0.246267	0.882416	0.728473	8.414443	-0.363323	-7.669105	14.983257	0.261507	41.122507	0.007463	0.000000	7.515077	-0.011875	-0.838704	11.913016	0.207921	41.636888	17.359750	0.000000	-0.276436	0.573217	-0.300825	-0.513369	0.762379	-0.319626	-0.454157	1.393720	-0.319626	-0.315939	1.393720	-0.263221	-0.256699	1.168904	-0.244420	-0.157956	0.887913	-0.225618	-1.974555	6.484345	-1.673096	0.000000	0.000000	9.505317	-4.598158	-13.544087	-14.815103	-11.778735	-49.235225	127.827290	68.527530	-4.765609	16.918966	-6.644730	-20.165005	30.342130	65.782754	88.922174	-12.295704	12.158313
1.566667	-0.620922	-6.727042	105.059093	0.243897	0.882477	0.729060	8.098897	-0.589344	-8.290034	14.668116	0.256007	41.561296	0.612145	0.000000	7.572593	0.279588	0.788288	11.993810	0.209331	41.613982	16.703283	0.000000	-0.283809	0.551837	-0.340484	-0.527061	0.733943	-0.361764	-0.466269	1.341737	-0.361764	-0.324365	1.341737	-0.297924	-0.263545	1.125306	-0.276643	-0.162168	0.854796	-0.255363	-2.027217	6.242492	-1.893670	0.000000	0.000000	8.940293	-4.980237	-15.312881	-12.699432	-11.047718	-50.534381	126.218668	69.584147	-5.760146	16.731692	-6.815838	-19.931735	29.573747	64.919244	89.043347	-12.873439	10.740907
1.583333	-0.653471	-6.536217	106.433462	0.241654	0.882489	0.730075	7.824414	-0.800784	-9.016018	14.421010	0.251694	41.983530	1.306417	0.000000	7.635448	0.521300	1.930918	12.069092	0.210645	41.665540	16.700460	0.000000	-0.289166	0.528683	-0.403824	-0.537011	0.703149	-0.429063	-0.475071	1.285441	-0.429063	-0.330488	1.285441	-0.353346	-0.268520	1.078091	-0.328107	-0.165230	0.818930	-0.302868	-2.065486	5.980571	-2.245946	0.000000	0.000000	8.552606	-5.225170	-16.910634	-9.997676	-10.252731	-50.786389	124.096515	70.996297	-6.975798	15.944307	-7.195542	-19.547817	28.339800	64.186482	89.098701	-13.380221	9.210136
1.600000	-0.678798	-6.322939	107.806527	0.239559	0.882454	0.731465	7.566915	-0.998105	-9.833367	14.239144	0.248520	42.382619	2.075901	0.000000	7.643757	0.741856	3.174418	12.065655	0.210585	41.632936	16.540274	0.000000	-0.293742	0.504208	-0.484897	-0.545509	0.670597	-0.515203	-0.482589	1.225932	-0.515203	-0.335718	1.225932	-0.424285	-0.272769	1.028181	-0.393979	-0.167844	0.781018	-0.363673	-2.098171	5.703704	-2.696853	0.000000	0.000000	8.303752	-5.259632	-18.184501	-6.734636	-9.454650	-49.896812	121.470454	72.982352	-8.102714	14.771961	-7.804753	-19.010596	26.670616	63.565741	89.099267	-13.860807	7.525447
